<svg width="434" height="358" viewBox="0 0 434 358" fill="none" xmlns="http://www.w3.org/2000/svg">
<path opacity="0.1" d="M44.2904 41.7355C48.3276 17.6466 69.1778 0.00012207 93.6026 0.00012207H383.285C410.899 0.00012207 433.285 22.3859 433.285 50.0001V308C433.285 335.614 410.899 358 383.285 358H50.3624C19.4471 358 -4.05989 330.226 1.05018 299.736L44.2904 41.7355Z" fill="#68C9BA"/>
<path d="M209.014 126.03C234.738 155.207 204.363 183.381 150.903 184.141C44.6159 177.137 20.6314 83.0074 28.6641 61.9028C36.6967 40.7982 60.6151 40.2221 96.054 83.2151C131.493 126.208 176.858 89.5572 209.014 126.03Z" stroke="white" stroke-width="1.5"/>
<ellipse cx="104.634" cy="91.1502" rx="16.8481" ry="9.95569" transform="rotate(20.7184 104.634 91.1502)" stroke="white" stroke-width="1.5"/>

</svg>
